<mxfile host="app.diagrams.net" agent="Mozilla/5.0 (Windows NT 10.0; Win64; x64) AppleWebKit/537.36 (KHTML, like Gecko) Chrome/135.0.0.0 Safari/537.36" version="26.2.15">
  <diagram id="C5RBs43oDa-KdzZeNtuy" name="Page-1">
    <mxGraphModel dx="2432" dy="1032" grid="1" gridSize="10" guides="1" tooltips="1" connect="1" arrows="1" fold="1" page="1" pageScale="1" pageWidth="827" pageHeight="1169" math="0" shadow="0">
      <root>
        <mxCell id="WIyWlLk6GJQsqaUBKTNV-0" />
        <mxCell id="WIyWlLk6GJQsqaUBKTNV-1" parent="WIyWlLk6GJQsqaUBKTNV-0" />
        <mxCell id="vGl0djAeYZSiZAJhuoVe-0" value="ScriptableObject EnemyConfig" style="swimlane;fontStyle=0;align=center;verticalAlign=top;childLayout=stackLayout;horizontal=1;startSize=26;horizontalStack=0;resizeParent=1;resizeLast=0;collapsible=1;marginBottom=0;rounded=0;shadow=0;strokeWidth=1;" vertex="1" parent="WIyWlLk6GJQsqaUBKTNV-1">
          <mxGeometry x="180" y="590" width="190" height="130" as="geometry">
            <mxRectangle x="550" y="140" width="160" height="26" as="alternateBounds" />
          </mxGeometry>
        </mxCell>
        <mxCell id="vGl0djAeYZSiZAJhuoVe-1" value="+ EnemyID: int&#xa;+ EnemyName: string&#xa;+ EnemyVehicle: Vehicle&#xa;&#xa;&#xa;LoadEnemyData()" style="text;align=left;verticalAlign=top;spacingLeft=4;spacingRight=4;overflow=hidden;rotatable=0;points=[[0,0.5],[1,0.5]];portConstraint=eastwest;" vertex="1" parent="vGl0djAeYZSiZAJhuoVe-0">
          <mxGeometry y="26" width="190" height="104" as="geometry" />
        </mxCell>
        <mxCell id="vGl0djAeYZSiZAJhuoVe-9" value="Class BasePart" style="swimlane;fontStyle=0;childLayout=stackLayout;horizontal=1;startSize=26;fillColor=none;horizontalStack=0;resizeParent=1;resizeParentMax=0;resizeLast=0;collapsible=1;marginBottom=0;whiteSpace=wrap;html=1;" vertex="1" parent="WIyWlLk6GJQsqaUBKTNV-1">
          <mxGeometry x="910" y="840" width="140" height="150" as="geometry" />
        </mxCell>
        <mxCell id="vGl0djAeYZSiZAJhuoVe-10" value="+ PartID: int&lt;div&gt;+ PartName: string&lt;/div&gt;&lt;div&gt;+ PartStarts: int&lt;/div&gt;&lt;div&gt;+ Level: int&lt;/div&gt;&lt;div&gt;+ HP: int&lt;/div&gt;&lt;div&gt;+ ATK: int&lt;/div&gt;&lt;div&gt;+ EnergyCost: int&lt;/div&gt;" style="text;strokeColor=none;fillColor=none;align=left;verticalAlign=top;spacingLeft=4;spacingRight=4;overflow=hidden;rotatable=0;points=[[0,0.5],[1,0.5]];portConstraint=eastwest;whiteSpace=wrap;html=1;" vertex="1" parent="vGl0djAeYZSiZAJhuoVe-9">
          <mxGeometry y="26" width="140" height="124" as="geometry" />
        </mxCell>
        <mxCell id="vGl0djAeYZSiZAJhuoVe-11" style="edgeStyle=orthogonalEdgeStyle;rounded=0;orthogonalLoop=1;jettySize=auto;html=1;" edge="1" parent="WIyWlLk6GJQsqaUBKTNV-1" source="vGl0djAeYZSiZAJhuoVe-12" target="vGl0djAeYZSiZAJhuoVe-9">
          <mxGeometry relative="1" as="geometry">
            <mxPoint x="1140" y="910" as="targetPoint" />
            <Array as="points">
              <mxPoint x="1160" y="740" />
              <mxPoint x="1160" y="915" />
            </Array>
          </mxGeometry>
        </mxCell>
        <mxCell id="vGl0djAeYZSiZAJhuoVe-12" value="ClassWeapon" style="swimlane;fontStyle=1;align=center;verticalAlign=top;childLayout=stackLayout;horizontal=1;startSize=26;horizontalStack=0;resizeParent=1;resizeParentMax=0;resizeLast=0;collapsible=1;marginBottom=0;whiteSpace=wrap;html=1;" vertex="1" parent="WIyWlLk6GJQsqaUBKTNV-1">
          <mxGeometry x="1270" y="650" width="160" height="180" as="geometry" />
        </mxCell>
        <mxCell id="vGl0djAeYZSiZAJhuoVe-13" value="+ WeaponType: WType&lt;div&gt;+ AttackInterval: float&lt;/div&gt;&lt;div&gt;+ Bullet: GameObject&lt;/div&gt;" style="text;strokeColor=none;fillColor=none;align=left;verticalAlign=top;spacingLeft=4;spacingRight=4;overflow=hidden;rotatable=0;points=[[0,0.5],[1,0.5]];portConstraint=eastwest;whiteSpace=wrap;html=1;" vertex="1" parent="vGl0djAeYZSiZAJhuoVe-12">
          <mxGeometry y="26" width="160" height="84" as="geometry" />
        </mxCell>
        <mxCell id="vGl0djAeYZSiZAJhuoVe-14" value="" style="line;strokeWidth=1;fillColor=none;align=left;verticalAlign=middle;spacingTop=-1;spacingLeft=3;spacingRight=3;rotatable=0;labelPosition=right;points=[];portConstraint=eastwest;strokeColor=inherit;" vertex="1" parent="vGl0djAeYZSiZAJhuoVe-12">
          <mxGeometry y="110" width="160" height="8" as="geometry" />
        </mxCell>
        <mxCell id="vGl0djAeYZSiZAJhuoVe-15" value="Attack()&lt;div&gt;&lt;div&gt;DealDamage(Vehicle target, float amount)&lt;br&gt;&lt;div&gt;&lt;br&gt;&lt;/div&gt;&lt;/div&gt;&lt;/div&gt;" style="text;strokeColor=none;fillColor=none;align=left;verticalAlign=top;spacingLeft=4;spacingRight=4;overflow=hidden;rotatable=0;points=[[0,0.5],[1,0.5]];portConstraint=eastwest;whiteSpace=wrap;html=1;" vertex="1" parent="vGl0djAeYZSiZAJhuoVe-12">
          <mxGeometry y="118" width="160" height="62" as="geometry" />
        </mxCell>
        <mxCell id="vGl0djAeYZSiZAJhuoVe-16" value="Class Vehicle" style="swimlane;fontStyle=1;align=center;verticalAlign=top;childLayout=stackLayout;horizontal=1;startSize=26;horizontalStack=0;resizeParent=1;resizeParentMax=0;resizeLast=0;collapsible=1;marginBottom=0;whiteSpace=wrap;html=1;" vertex="1" parent="WIyWlLk6GJQsqaUBKTNV-1">
          <mxGeometry x="580" y="600" width="180" height="200" as="geometry" />
        </mxCell>
        <mxCell id="vGl0djAeYZSiZAJhuoVe-17" value="+ ListPart: List&amp;lt;BasePart&amp;gt;&lt;div&gt;+ HP: float&lt;/div&gt;&lt;div&gt;+ Damage: float&lt;/div&gt;&lt;div&gt;+ Speed: float&lt;/div&gt;&lt;div&gt;+ IsDestroyed: bool&lt;/div&gt;" style="text;strokeColor=none;fillColor=none;align=left;verticalAlign=top;spacingLeft=4;spacingRight=4;overflow=hidden;rotatable=0;points=[[0,0.5],[1,0.5]];portConstraint=eastwest;whiteSpace=wrap;html=1;" vertex="1" parent="vGl0djAeYZSiZAJhuoVe-16">
          <mxGeometry y="26" width="180" height="84" as="geometry" />
        </mxCell>
        <mxCell id="vGl0djAeYZSiZAJhuoVe-18" value="" style="line;strokeWidth=1;fillColor=none;align=left;verticalAlign=middle;spacingTop=-1;spacingLeft=3;spacingRight=3;rotatable=0;labelPosition=right;points=[];portConstraint=eastwest;strokeColor=inherit;" vertex="1" parent="vGl0djAeYZSiZAJhuoVe-16">
          <mxGeometry y="110" width="180" height="8" as="geometry" />
        </mxCell>
        <mxCell id="vGl0djAeYZSiZAJhuoVe-19" value="OnBattleStart()&lt;div&gt;OnTakeDamage(float amount)&lt;br&gt;&lt;div&gt;OnDestroyed()&lt;/div&gt;&lt;/div&gt;" style="text;strokeColor=none;fillColor=none;align=left;verticalAlign=top;spacingLeft=4;spacingRight=4;overflow=hidden;rotatable=0;points=[[0,0.5],[1,0.5]];portConstraint=eastwest;whiteSpace=wrap;html=1;" vertex="1" parent="vGl0djAeYZSiZAJhuoVe-16">
          <mxGeometry y="118" width="180" height="82" as="geometry" />
        </mxCell>
        <mxCell id="vGl0djAeYZSiZAJhuoVe-20" style="edgeStyle=orthogonalEdgeStyle;rounded=0;orthogonalLoop=1;jettySize=auto;html=1;" edge="1" parent="WIyWlLk6GJQsqaUBKTNV-1" source="vGl0djAeYZSiZAJhuoVe-21" target="vGl0djAeYZSiZAJhuoVe-9">
          <mxGeometry relative="1" as="geometry" />
        </mxCell>
        <mxCell id="vGl0djAeYZSiZAJhuoVe-21" value="ClassWheel" style="swimlane;fontStyle=1;align=center;verticalAlign=top;childLayout=stackLayout;horizontal=1;startSize=26;horizontalStack=0;resizeParent=1;resizeParentMax=0;resizeLast=0;collapsible=1;marginBottom=0;whiteSpace=wrap;html=1;" vertex="1" parent="WIyWlLk6GJQsqaUBKTNV-1">
          <mxGeometry x="1270" y="860" width="160" height="110" as="geometry" />
        </mxCell>
        <mxCell id="vGl0djAeYZSiZAJhuoVe-22" value="+ Speed: float" style="text;strokeColor=none;fillColor=none;align=left;verticalAlign=top;spacingLeft=4;spacingRight=4;overflow=hidden;rotatable=0;points=[[0,0.5],[1,0.5]];portConstraint=eastwest;whiteSpace=wrap;html=1;" vertex="1" parent="vGl0djAeYZSiZAJhuoVe-21">
          <mxGeometry y="26" width="160" height="34" as="geometry" />
        </mxCell>
        <mxCell id="vGl0djAeYZSiZAJhuoVe-23" value="" style="line;strokeWidth=1;fillColor=none;align=left;verticalAlign=middle;spacingTop=-1;spacingLeft=3;spacingRight=3;rotatable=0;labelPosition=right;points=[];portConstraint=eastwest;strokeColor=inherit;" vertex="1" parent="vGl0djAeYZSiZAJhuoVe-21">
          <mxGeometry y="60" width="160" height="8" as="geometry" />
        </mxCell>
        <mxCell id="vGl0djAeYZSiZAJhuoVe-24" value="&lt;div&gt;&lt;div&gt;&lt;div&gt;StartMoveToTarget()&lt;/div&gt;&lt;/div&gt;&lt;/div&gt;" style="text;strokeColor=none;fillColor=none;align=left;verticalAlign=top;spacingLeft=4;spacingRight=4;overflow=hidden;rotatable=0;points=[[0,0.5],[1,0.5]];portConstraint=eastwest;whiteSpace=wrap;html=1;" vertex="1" parent="vGl0djAeYZSiZAJhuoVe-21">
          <mxGeometry y="68" width="160" height="42" as="geometry" />
        </mxCell>
        <mxCell id="vGl0djAeYZSiZAJhuoVe-25" style="edgeStyle=orthogonalEdgeStyle;rounded=0;orthogonalLoop=1;jettySize=auto;html=1;" edge="1" parent="WIyWlLk6GJQsqaUBKTNV-1" source="vGl0djAeYZSiZAJhuoVe-26" target="vGl0djAeYZSiZAJhuoVe-9">
          <mxGeometry relative="1" as="geometry">
            <mxPoint x="1140" y="910" as="targetPoint" />
          </mxGeometry>
        </mxCell>
        <mxCell id="vGl0djAeYZSiZAJhuoVe-26" value="ClassBody" style="swimlane;fontStyle=1;align=center;verticalAlign=top;childLayout=stackLayout;horizontal=1;startSize=26;horizontalStack=0;resizeParent=1;resizeParentMax=0;resizeLast=0;collapsible=1;marginBottom=0;whiteSpace=wrap;html=1;" vertex="1" parent="WIyWlLk6GJQsqaUBKTNV-1">
          <mxGeometry x="1270" y="990" width="160" height="118" as="geometry" />
        </mxCell>
        <mxCell id="vGl0djAeYZSiZAJhuoVe-27" value="+ EnergyPoolBase" style="text;strokeColor=none;fillColor=none;align=left;verticalAlign=top;spacingLeft=4;spacingRight=4;overflow=hidden;rotatable=0;points=[[0,0.5],[1,0.5]];portConstraint=eastwest;whiteSpace=wrap;html=1;" vertex="1" parent="vGl0djAeYZSiZAJhuoVe-26">
          <mxGeometry y="26" width="160" height="84" as="geometry" />
        </mxCell>
        <mxCell id="vGl0djAeYZSiZAJhuoVe-28" value="" style="line;strokeWidth=1;fillColor=none;align=left;verticalAlign=middle;spacingTop=-1;spacingLeft=3;spacingRight=3;rotatable=0;labelPosition=right;points=[];portConstraint=eastwest;strokeColor=inherit;" vertex="1" parent="vGl0djAeYZSiZAJhuoVe-26">
          <mxGeometry y="110" width="160" height="8" as="geometry" />
        </mxCell>
        <mxCell id="vGl0djAeYZSiZAJhuoVe-29" style="edgeStyle=orthogonalEdgeStyle;rounded=0;orthogonalLoop=1;jettySize=auto;html=1;entryX=0.978;entryY=0.19;entryDx=0;entryDy=0;entryPerimeter=0;" edge="1" parent="WIyWlLk6GJQsqaUBKTNV-1" source="vGl0djAeYZSiZAJhuoVe-10" target="vGl0djAeYZSiZAJhuoVe-17">
          <mxGeometry relative="1" as="geometry" />
        </mxCell>
        <mxCell id="vGl0djAeYZSiZAJhuoVe-30" style="edgeStyle=none;curved=1;rounded=0;orthogonalLoop=1;jettySize=auto;html=1;entryX=1;entryY=0.5;entryDx=0;entryDy=0;fontSize=12;startSize=8;endSize=8;exitX=0;exitY=0.5;exitDx=0;exitDy=0;strokeColor=default;startArrow=none;startFill=0;endArrow=none;" edge="1" parent="WIyWlLk6GJQsqaUBKTNV-1" source="vGl0djAeYZSiZAJhuoVe-17" target="vGl0djAeYZSiZAJhuoVe-1">
          <mxGeometry relative="1" as="geometry" />
        </mxCell>
        <mxCell id="vGl0djAeYZSiZAJhuoVe-31" value="ScriptableObject PlayerConfig" style="swimlane;fontStyle=0;align=center;verticalAlign=top;childLayout=stackLayout;horizontal=1;startSize=26;horizontalStack=0;resizeParent=1;resizeLast=0;collapsible=1;marginBottom=0;rounded=0;shadow=0;strokeWidth=1;" vertex="1" parent="WIyWlLk6GJQsqaUBKTNV-1">
          <mxGeometry x="180" y="460" width="190" height="110" as="geometry">
            <mxRectangle x="550" y="140" width="160" height="26" as="alternateBounds" />
          </mxGeometry>
        </mxCell>
        <mxCell id="vGl0djAeYZSiZAJhuoVe-32" value="+ EnemyName: string&#xa;+ EnemyVehicle: Vehicle&#xa;&#xa;&#xa;LoadPlayerData()" style="text;align=left;verticalAlign=top;spacingLeft=4;spacingRight=4;overflow=hidden;rotatable=0;points=[[0,0.5],[1,0.5]];portConstraint=eastwest;" vertex="1" parent="vGl0djAeYZSiZAJhuoVe-31">
          <mxGeometry y="26" width="190" height="84" as="geometry" />
        </mxCell>
        <mxCell id="vGl0djAeYZSiZAJhuoVe-36" style="edgeStyle=none;curved=1;rounded=0;orthogonalLoop=1;jettySize=auto;html=1;fontSize=12;startSize=8;endSize=8;exitX=0;exitY=0.5;exitDx=0;exitDy=0;endArrow=none;startFill=0;" edge="1" parent="WIyWlLk6GJQsqaUBKTNV-1" source="vGl0djAeYZSiZAJhuoVe-17">
          <mxGeometry relative="1" as="geometry">
            <mxPoint x="370" y="520" as="targetPoint" />
          </mxGeometry>
        </mxCell>
        <mxCell id="vGl0djAeYZSiZAJhuoVe-38" value="ScriptableObject LevelConfig" style="swimlane;fontStyle=1;align=center;verticalAlign=top;childLayout=stackLayout;horizontal=1;startSize=26;horizontalStack=0;resizeParent=1;resizeParentMax=0;resizeLast=0;collapsible=1;marginBottom=0;whiteSpace=wrap;html=1;" vertex="1" parent="WIyWlLk6GJQsqaUBKTNV-1">
          <mxGeometry x="-380" y="585" width="180" height="200" as="geometry" />
        </mxCell>
        <mxCell id="vGl0djAeYZSiZAJhuoVe-39" value="+ ListLevel: List&amp;lt;LevelData&amp;gt;" style="text;strokeColor=none;fillColor=none;align=left;verticalAlign=top;spacingLeft=4;spacingRight=4;overflow=hidden;rotatable=0;points=[[0,0.5],[1,0.5]];portConstraint=eastwest;whiteSpace=wrap;html=1;" vertex="1" parent="vGl0djAeYZSiZAJhuoVe-38">
          <mxGeometry y="26" width="180" height="84" as="geometry" />
        </mxCell>
        <mxCell id="vGl0djAeYZSiZAJhuoVe-40" value="" style="line;strokeWidth=1;fillColor=none;align=left;verticalAlign=middle;spacingTop=-1;spacingLeft=3;spacingRight=3;rotatable=0;labelPosition=right;points=[];portConstraint=eastwest;strokeColor=inherit;" vertex="1" parent="vGl0djAeYZSiZAJhuoVe-38">
          <mxGeometry y="110" width="180" height="8" as="geometry" />
        </mxCell>
        <mxCell id="vGl0djAeYZSiZAJhuoVe-41" value="LoadLevelData(int level)" style="text;strokeColor=none;fillColor=none;align=left;verticalAlign=top;spacingLeft=4;spacingRight=4;overflow=hidden;rotatable=0;points=[[0,0.5],[1,0.5]];portConstraint=eastwest;whiteSpace=wrap;html=1;" vertex="1" parent="vGl0djAeYZSiZAJhuoVe-38">
          <mxGeometry y="118" width="180" height="82" as="geometry" />
        </mxCell>
        <mxCell id="vGl0djAeYZSiZAJhuoVe-63" value="Class LevelData" style="swimlane;fontStyle=1;align=center;verticalAlign=top;childLayout=stackLayout;horizontal=1;startSize=26;horizontalStack=0;resizeParent=1;resizeParentMax=0;resizeLast=0;collapsible=1;marginBottom=0;whiteSpace=wrap;html=1;" vertex="1" parent="WIyWlLk6GJQsqaUBKTNV-1">
          <mxGeometry x="-100" y="590" width="180" height="200" as="geometry" />
        </mxCell>
        <mxCell id="vGl0djAeYZSiZAJhuoVe-64" value="+ Enemy: EnemyConfig&lt;div&gt;+ Rewards: List&amp;lt;RewardData&amp;gt;&lt;/div&gt;&lt;div&gt;+ Map: GameObject&lt;/div&gt;" style="text;strokeColor=none;fillColor=none;align=left;verticalAlign=top;spacingLeft=4;spacingRight=4;overflow=hidden;rotatable=0;points=[[0,0.5],[1,0.5]];portConstraint=eastwest;whiteSpace=wrap;html=1;" vertex="1" parent="vGl0djAeYZSiZAJhuoVe-63">
          <mxGeometry y="26" width="180" height="84" as="geometry" />
        </mxCell>
        <mxCell id="vGl0djAeYZSiZAJhuoVe-65" value="" style="line;strokeWidth=1;fillColor=none;align=left;verticalAlign=middle;spacingTop=-1;spacingLeft=3;spacingRight=3;rotatable=0;labelPosition=right;points=[];portConstraint=eastwest;strokeColor=inherit;" vertex="1" parent="vGl0djAeYZSiZAJhuoVe-63">
          <mxGeometry y="110" width="180" height="8" as="geometry" />
        </mxCell>
        <mxCell id="vGl0djAeYZSiZAJhuoVe-66" value="&amp;nbsp;" style="text;strokeColor=none;fillColor=none;align=left;verticalAlign=top;spacingLeft=4;spacingRight=4;overflow=hidden;rotatable=0;points=[[0,0.5],[1,0.5]];portConstraint=eastwest;whiteSpace=wrap;html=1;" vertex="1" parent="vGl0djAeYZSiZAJhuoVe-63">
          <mxGeometry y="118" width="180" height="82" as="geometry" />
        </mxCell>
        <mxCell id="vGl0djAeYZSiZAJhuoVe-67" style="edgeStyle=none;curved=1;rounded=0;orthogonalLoop=1;jettySize=auto;html=1;entryX=1.008;entryY=0.388;entryDx=0;entryDy=0;entryPerimeter=0;fontSize=12;startSize=8;endSize=8;" edge="1" parent="WIyWlLk6GJQsqaUBKTNV-1" source="vGl0djAeYZSiZAJhuoVe-1" target="vGl0djAeYZSiZAJhuoVe-64">
          <mxGeometry relative="1" as="geometry" />
        </mxCell>
        <mxCell id="vGl0djAeYZSiZAJhuoVe-68" style="edgeStyle=none;curved=1;rounded=0;orthogonalLoop=1;jettySize=auto;html=1;entryX=0.979;entryY=0.16;entryDx=0;entryDy=0;entryPerimeter=0;fontSize=12;startSize=8;endSize=8;" edge="1" parent="WIyWlLk6GJQsqaUBKTNV-1" source="vGl0djAeYZSiZAJhuoVe-64" target="vGl0djAeYZSiZAJhuoVe-39">
          <mxGeometry relative="1" as="geometry" />
        </mxCell>
        <mxCell id="vGl0djAeYZSiZAJhuoVe-69" value="Class RewardData" style="swimlane;fontStyle=1;align=center;verticalAlign=top;childLayout=stackLayout;horizontal=1;startSize=26;horizontalStack=0;resizeParent=1;resizeParentMax=0;resizeLast=0;collapsible=1;marginBottom=0;whiteSpace=wrap;html=1;" vertex="1" parent="WIyWlLk6GJQsqaUBKTNV-1">
          <mxGeometry x="180" y="760" width="180" height="140" as="geometry" />
        </mxCell>
        <mxCell id="vGl0djAeYZSiZAJhuoVe-70" value="+ RewardType: enum&lt;div&gt;+ Amount: int&lt;/div&gt;" style="text;strokeColor=none;fillColor=none;align=left;verticalAlign=top;spacingLeft=4;spacingRight=4;overflow=hidden;rotatable=0;points=[[0,0.5],[1,0.5]];portConstraint=eastwest;whiteSpace=wrap;html=1;" vertex="1" parent="vGl0djAeYZSiZAJhuoVe-69">
          <mxGeometry y="26" width="180" height="84" as="geometry" />
        </mxCell>
        <mxCell id="vGl0djAeYZSiZAJhuoVe-71" value="" style="line;strokeWidth=1;fillColor=none;align=left;verticalAlign=middle;spacingTop=-1;spacingLeft=3;spacingRight=3;rotatable=0;labelPosition=right;points=[];portConstraint=eastwest;strokeColor=inherit;" vertex="1" parent="vGl0djAeYZSiZAJhuoVe-69">
          <mxGeometry y="110" width="180" height="8" as="geometry" />
        </mxCell>
        <mxCell id="vGl0djAeYZSiZAJhuoVe-72" value="&amp;nbsp;" style="text;strokeColor=none;fillColor=none;align=left;verticalAlign=top;spacingLeft=4;spacingRight=4;overflow=hidden;rotatable=0;points=[[0,0.5],[1,0.5]];portConstraint=eastwest;whiteSpace=wrap;html=1;" vertex="1" parent="vGl0djAeYZSiZAJhuoVe-69">
          <mxGeometry y="118" width="180" height="22" as="geometry" />
        </mxCell>
        <mxCell id="vGl0djAeYZSiZAJhuoVe-73" style="edgeStyle=none;curved=1;rounded=0;orthogonalLoop=1;jettySize=auto;html=1;entryX=1;entryY=0.405;entryDx=0;entryDy=0;entryPerimeter=0;fontSize=12;startSize=8;endSize=8;exitX=0;exitY=0.5;exitDx=0;exitDy=0;" edge="1" parent="WIyWlLk6GJQsqaUBKTNV-1" source="vGl0djAeYZSiZAJhuoVe-70" target="vGl0djAeYZSiZAJhuoVe-64">
          <mxGeometry relative="1" as="geometry" />
        </mxCell>
      </root>
    </mxGraphModel>
  </diagram>
</mxfile>
